# xmcd
#
# Track frame offsets: 
#        150
#        10913
#        24579
#        37581
#        54086
#        71073
#        87680
#        102044
#        115349
#        129879
#        142933
#        155023
#        173312
#
# Disc length: 2506 seconds
#
# Revision: 0
# Processed by: cddbd v1.5.2PL0 Copyright (c) Steve Scherf et al.
# Submitted via: ExactAudioCopy v0.95b3
#
DISCID=9609c80d
DTITLE=Hillfillies - Just Passing Through
DYEAR=2007
DGENRE=Bluegrass
TTITLE0=Stayin' Kind
TTITLE1=You Had Your Chance
TTITLE2=Where the Black River Runs
TTITLE3=Just Passing Through
TTITLE4=I Know He's Taken
TTITLE5=Margaritaville
TTITLE6=Snake City Here I Come
TTITLE7=How Could You Have Known
TTITLE8=Living Lonely With a Man
TTITLE9=Breaking New Ground
TTITLE10=Divided Heart
TTITLE11=Hideaway
TTITLE12=Those Memories of You
EXTD=
EXTT0=
EXTT1=
EXTT2=
EXTT3=
EXTT4=
EXTT5=
EXTT6=
EXTT7=
EXTT8=
EXTT9=
EXTT10=
EXTT11=
EXTT12=
PLAYORDER=
